<svg xmlns="http://www.w3.org/2000/svg" version="1.2" viewBox="0 0 96 96" width="256" height="256"><style>.a{opacity:.45;fill:#ddca10}.b{fill:#ddca10}</style><path class="a" d="m47.6 13.5c-18 17.4-26.7 32-26.7 43 0 17.1 11.8 29.1 26.7 29.1 14.9 0 26.7-12 26.7-29.1 0-11-8.7-25.6-26.7-43zm1.2 67.4c-9.5 0.6-20.5-5.2-23.1-19.4-0.1-0.9 0.1-1.9 0.6-2.6 0.5-0.8 1.3-1.3 2.2-1.5 0.8-0.1 1.7 0.1 2.5 0.6 0.7 0.6 1.2 1.4 1.3 2.3 1.8 10.5 10.2 14 16.2 13.5 1.9-0.1 3.5 1.5 3.5 3.5 0 1.9-1.4 3.5-3.2 3.6z"></path><path class="b" d="m47.6 1c-23.7 21.4-35.6 39.9-35.6 55.5 0 23.4 16.9 38.5 35.6 38.5 18.7 0 35.6-15.1 35.6-38.5 0-15.6-11.9-34.1-35.6-55.5zm0 84.6c-14.9 0-26.7-12.1-26.7-29.1 0-11 8.7-25.6 26.7-43 18 17.4 26.7 31.9 26.7 43 0 17-11.8 29.1-26.7 29.1zm-18.6-28.2c1.7 0 3 1.2 3.3 2.9 1.8 10.4 10.2 14 16.2 13.5 1.9-0.1 3.5 1.5 3.5 3.5 0 1.9-1.4 3.5-3.2 3.6-9.5 0.6-20.5-5.2-23.1-19.4q-0.1-0.8 0.1-1.5 0.2-0.8 0.7-1.4 0.5-0.5 1.1-0.9 0.7-0.3 1.4-0.3z"></path><style>@media (prefers-color-scheme: light) { :root { filter: none; } }
@media (prefers-color-scheme: dark) { :root { filter: contrast(1) brightness(1.1); } }
</style></svg>